<svg height="16" viewBox="0 0 4.2333332 4.2333333" width="16" xmlns="http://www.w3.org/2000/svg"><g fill="#c87137"><path d="m.2645833 2.9104165v1.0583333h1.0583333v-1.0583333zm.26458332.2645833h.52916658v.5291667h-.52916658z"/><path d="m2.9104165 2.9104165v1.0583333h1.0583334v-1.0583333zm.2645834.2645833h.5291666v.5291667h-.5291666z"/><path d="m2.9104165.26458333v1.05833327h1.0583333v-1.05833327zm.2645833.2645833h.5291666v.52916667h-.5291666z"/><path d="m.26458336.26458325v1.05833335h1.05833334v-1.05833335zm.2645833.2645833h.52916664v.52916675h-.52916664z"/><path d="m2.6458332 3.7041664h-.7937499v.2645833l-.5291666-.5291668h1.3229165z"/><path d="m1.5875 2.9104164h.7937499v-.2645833l.5291666.5291668h-1.3229165z"/><path d="m3.7044476 1.5875003-.0002105.7937498.2645833.0000702-.5293077.5290258.0003509-1.3229165z"/><path d="m.52888562 2.6458328.0002105-.7937498-.26458334-.0000702.52930774-.5290258-.0003509 1.3229165z"/><path d="m1.3231977 1.5875003-.0002105.7937498.2645833.0000702-.5293078.5290258.0003509-1.3229165z"/><path d="m1.5874999.52916653h.7937499v-.26458321l.5291666.52916655h-1.3229165z"/></g></svg>