<svg height="16" viewBox="0 0 4.2333332 4.2333333" width="16" xmlns="http://www.w3.org/2000/svg"><path d="m.79374986.26458343c-.293158.00000001-.5291666.2360086-.5291666.5291667l.00000001 2.64583297c0 .293158.2360086.5291666.5291667.5291666l2.64583323-.0000001c.293158 0 .5291667-.2360086.5291667-.5291666v-2.64583298c0-.2931581-.2360087-.52916672-.5291667-.5291667zm0 .5291667 2.64583334-.00000011v2.64583298l-2.64583323.0000001z" fill="#c87137"/><path d="m2.9104166 1.3229166v.2888713a1.5875 1.5874999 0 0 0 -.5601725.2092895l-.2335775-.2335774-.5291666.5291666.2335774.2335775a1.5875 1.5874999 0 0 0 -.2092895.5601725h-.2888713v.2645833.2645834h.2888713.8180379a.79374987.79374981 0 0 1 -.0485758-.2645834.79374987.79374981 0 0 1 .7937499-.7937499.79374987.79374981 0 0 1 .2645834.045992v-.8170044-.287321z" fill="#808080"/></svg>