<?xml version="1.0" encoding="UTF-8" standalone="no"?>
<!-- Created with Inkscape (http://www.inkscape.org/) -->

<svg
   width="16"
   height="16"
   viewBox="0 0 4.2333332 4.2333333"
   version="1.1"
   id="svg1"
   inkscape:version="1.3.2 (091e20e, 2023-11-25, custom)"
   sodipodi:docname="PLStateBehaviour-working.svg"
   xmlns:inkscape="http://www.inkscape.org/namespaces/inkscape"
   xmlns:sodipodi="http://sodipodi.sourceforge.net/DTD/sodipodi-0.dtd"
   xmlns="http://www.w3.org/2000/svg"
   xmlns:svg="http://www.w3.org/2000/svg">
  <sodipodi:namedview
     id="namedview1"
     pagecolor="#ffffff"
     bordercolor="#000000"
     borderopacity="0.25"
     inkscape:showpageshadow="2"
     inkscape:pageopacity="0.0"
     inkscape:pagecheckerboard="0"
     inkscape:deskcolor="#d1d1d1"
     inkscape:document-units="px"
     showgrid="true"
     inkscape:zoom="33.667116"
     inkscape:cx="9.0147312"
     inkscape:cy="7.3216845"
     inkscape:window-width="1920"
     inkscape:window-height="1057"
     inkscape:window-x="2552"
     inkscape:window-y="-8"
     inkscape:window-maximized="1"
     inkscape:current-layer="layer1">
    <inkscape:grid
       id="grid1"
       units="px"
       originx="0"
       originy="0"
       spacingx="0.26458332"
       spacingy="0.26458333"
       empcolor="#0099e5"
       empopacity="0.30196078"
       color="#0099e5"
       opacity="0.14901961"
       empspacing="4"
       dotted="false"
       gridanglex="30"
       gridanglez="30"
       visible="true" />
  </sodipodi:namedview>
  <defs
     id="defs1" />
  <g
     inkscape:label="Layer 1"
     inkscape:groupmode="layer"
     id="layer1">
    <path
       id="rect1"
       style="fill:#c87137;stroke:#000000;stroke-width:0;stroke-linejoin:round"
       d="m 0.79374986,0.26458343 c -0.293158,10e-9 -0.5291666,0.2360086 -0.5291666,0.5291667 l 10e-9,2.64583297 c 0,0.293158 0.2360086,0.5291666 0.5291667,0.5291666 l 2.64583323,-10e-8 c 0.293158,0 0.5291667,-0.2360086 0.5291667,-0.5291666 l 0,-2.64583298 c 0,-0.2931581 -0.2360087,-0.52916672 -0.5291667,-0.5291667 z m 0,0.5291667 2.64583334,-1.1e-7 0,2.64583298 -2.64583323,1e-7 z"
       sodipodi:nodetypes="sssssssssccccc" />
    <path
       id="path1"
       style="fill:#808080;stroke:#000000;stroke-width:0;stroke-linejoin:round"
       d="M 2.9104166 1.3229166 L 2.9104166 1.6117879 A 1.5875 1.5874999 0 0 0 2.3502441 1.8210774 L 2.1166666 1.5875 L 1.5875 2.1166666 L 1.8210774 2.3502441 A 1.5875 1.5874999 0 0 0 1.6117879 2.9104166 L 1.3229166 2.9104166 L 1.3229166 3.1749999 L 1.3229166 3.4395833 L 1.6117879 3.4395833 L 2.4298258 3.4395833 A 0.79374987 0.79374981 0 0 1 2.38125 3.1749999 A 0.79374987 0.79374981 0 0 1 3.1749999 2.38125 A 0.79374987 0.79374981 0 0 1 3.4395833 2.427242 L 3.4395833 1.6102376 L 3.4395833 1.3229166 L 2.9104166 1.3229166 z " />
  </g>
</svg>
